<?xml version="1.0" encoding="UTF-8" standalone="no"?>
<svg width="75px" height="34px" viewBox="0 0 75 34" version="1.1" xmlns="http://www.w3.org/2000/svg" xmlns:xlink="http://www.w3.org/1999/xlink">
    <!-- Generator: Sketch 48.2 (47327) - http://www.bohemiancoding.com/sketch -->
    <title>Page 1</title>
    <desc>Created with Sketch.</desc>
    <defs></defs>
    <g id="04.01__after-sign-in" stroke="none" stroke-width="1" fill="none" fill-rule="evenodd" transform="translate(-123.000000, -81.000000)">
        <g id="Page-1" transform="translate(123.000000, 81.000000)" fill="#FFFFFF">
            <path d="M5.9757364,2.23527445 L5.51745591,2.15831278 L5.12694121,2.38919778 L4.70254361,2.48869194 L4.34217894,2.75352201 L3.94821852,2.9276368 L3.55540667,3.1105305 L3.21428059,3.38150579 L2.75686153,3.49329041 L2.45851978,3.82659588 L2.17367376,4.16516868 L1.82594338,4.43877764 L1.55459309,4.78759249 L1.22811132,5.09602441 L1.08482688,5.53379875 L0.763800818,5.85861795 L0.619080663,6.28497972 L0.396544711,6.67739643 L0.288866024,7.1154634 L0.281974588,7.57606287 L0.100787251,7.99071945 L0.135531574,8.44546633 L0.0338828934,8.87972911 L0.0447943337,9.32423394 L0.0267043143,9.76786088 L0.0493886243,10.2117804 L0,10.6697462 L0.0964801034,11.109569 L0.273934579,11.5259814 L0.493024814,11.9207391 L0.620516379,12.3424188 L0.744849369,12.7717069 L0.857696633,13.2185527 L1.24620134,13.4994774 L1.4115958,13.8599975 L1.59823886,14.2152502 L1.83369625,14.5383136 L2.20066521,14.7203294 L2.47775837,14.9992057 L2.8145773,15.2292128 L3.14393051,15.4805819 L3.57809098,15.5025292 L3.94563423,15.659964 L4.30083032,15.8893859 L4.69766218,15.9909285 L5.31961427,15.9435224 L5.76181474,16 L6.18649949,15.8554408 L6.61549137,15.774675 L7.07262329,15.7837465 L7.48266373,15.6105096 L7.86800986,15.3848919 L8.23383025,15.1370344 L8.66569357,15.0123741 L9.0237611,14.7469587 L9.25749563,14.3472263 L9.57421454,14.0411354 L9.96874925,13.800301 L10.2177024,13.4266126 L10.5080041,13.0848209 L10.7035486,12.6777727 L10.8330502,12.2414615 L11.0222775,11.841729 L11.3022421,11.4744785 L11.3450264,11.0141716 L11.4690723,10.5857615 L11.7142926,10.1892479 L11.6806968,9.71840642 L11.8179512,9.29175202 L11.9147185,9.230885 L11.8532698,8.76852974 L11.9902371,8.32812173 L11.8547056,7.87805694 L12,7.42038376 L11.9164413,6.97383053 L11.7616712,6.54424982 L11.7028068,6.09740395 L11.5293724,5.68216212 L11.430308,5.2397057 L11.2947764,4.8042724 L10.9367089,4.49145103 L10.7486301,4.08528072 L10.4792898,3.73207642 L10.2036324,3.38267631 L9.85044627,3.11170102 L9.89954775,3.05727185 L9.59546314,2.76405669 L9.24371276,2.53141591 L8.81730516,2.4667447 L8.46210907,2.22591029 L8.05752435,2.11412566 L7.64375105,2.0430166 L7.22337345,2.08310689 L6.80787729,2.06291543 L6.3834797,2 L5.9757364,2.23527445 Z M4.83118375,12.8934409 L4.45674906,12.8504243 L4.17477447,12.6054931 L3.8310641,12.3163747 L3.58584384,11.9388822 L3.36847647,11.5359308 L3.28721495,11.0767944 L3.13847479,10.6539442 L2.9722189,10.2264119 L2.8252016,9.77927344 L2.84099447,9.31369926 L2.93115743,8.8580745 L3.10775047,8.42907905 L3.04486612,7.93804607 L3.27343208,7.5312905 L3.53875236,7.1722336 L3.81182551,6.83190502 L3.99789428,6.41373688 L4.34045608,6.13164165 L4.68043359,5.85452113 L5.07267115,5.65904435 L5.3856572,5.30554743 L5.80632194,5.15308725 L6.26086957,5.14986832 L6.68900002,5.09924334 L7.07520758,4.98277664 L7.52774521,5.06529827 L7.92716135,5.25082563 L8.2022445,5.55837967 L8.49943768,5.85569165 L8.68177359,6.23523264 L8.75154938,6.65486393 L9.03180111,7.01040926 L8.94077672,7.45374357 L9.09037831,7.86049914 L9.04299969,8.28130095 L9.10473547,8.71907529 L8.99045249,9.14631495 L8.85061377,9.56389783 L8.77021368,9.99933113 L8.4629705,10.3554617 L8.3598861,10.780653 L8.20712594,11.1935538 L7.91998277,11.5248108 L7.66528678,11.8753815 L7.31755641,12.1378705 L7.08841617,12.5279462 L6.68297002,12.5972994 L6.33150678,12.7863384 L5.93754636,12.8378412 L5.56081453,12.948748 L5.16111124,13.0687262 L4.83118375,12.8934409 Z M7.08841617,12.5302872 L7.08841617,12.5656954 L7.08841617,12.5302872 Z" id="Fill-1"></path>
            <polygon id="Fill-2" points="10.0554525 17 9.75172322 16.6654618 9.43624072 16.326863 9.13405797 15.9742079 8.81764758 15.6356091 8.44896607 15.3473003 8.16750619 14.9746542 7.86006539 14.6260598 7.52231354 14.3065149 7.17218982 13.9982151 6.85175857 13.6614904 6.578959 13.2807229 6.23471191 12.9661758 5.91675504 12.6278893 5.63529516 12.2564926 5.29692471 11.9347613 5 11.5155734 5.39899258 11.2819277 5.80417109 11.0763945 6.14934606 10.7821508 6.52328561 10.5303882 6.86784199 10.2339581 7.26219512 10.0109326 7.26312301 10 7.53963415 10.3742079 7.87522093 10.6962517 8.14647402 11.0776439 8.49195829 11.3906292 8.78207847 11.7545292 9.10683987 12.0868809 9.43036409 12.4207943 9.72203075 12.7850067 10.04772 13.1167336 10.3972252 13.4253458 10.7089961 13.7701919 11.0547897 14.0819277 11.3724373 14.4230254 11.7104984 14.7435074 12 15.1158411 11.6622481 15.4166444 11.3297543 15.7218206 11.0448922 16.0772869 10.7352863 16.4071397 10.392895 16.7035698"></polygon>
            <polygon id="Fill-3" points="20.0043091 1.01907315 19.8882505 1.52881848 19.937087 1.99334198 19.7064062 2.40341471 19.6742315 2.85224901 19.636886 3.30016041 19.5518529 3.73884287 19.5538638 4.19444505 19.4898018 4.63651146 19.3375467 5.06196577 19.3280666 5.51633743 19.1390405 5.93471621 19.1065786 6.38416577 19.0913531 6.83761454 18.9399598 7.26245358 18.8233266 7.69406052 18.7115771 8.12720561 18.7641482 8.59665121 18.6676242 9.03256499 18.5555875 9.46386429 18.5150819 9.92684963 18.2838265 10.3338461 18.1062913 10.7491485 17.8960069 11.1370718 17.8078138 11.6326661 17.4145361 11.9024589 16.9617926 11.9359907 16.5311692 11.8883078 16.1011204 11.6345119 15.9037633 11.1915226 16.0557311 10.7239227 16.054582 10.2544771 16.184717 9.80748863 16.2039644 9.34142697 16.3214594 8.89290031 16.3731686 8.43299128 16.3929905 7.96723725 16.4745763 7.51163506 16.4326343 7.03511393 16.5314565 6.58258806 16.6363114 6.13129271 16.8083884 5.69137973 16.7414536 5.21024413 16.9583453 4.77832956 16.9827636 4.3122679 16.9319161 3.83297809 17.0680839 3.38752774 17.2148808 2.94300029 17.2479173 2.47878442 17.3346739 2.02379749 17.459638 1.57465556 17.4222924 1.11874574 17.0226946 1.1525852 16.6027004 1.02799446 16.1821316 1.17934914 15.7615628 1.13074337 15.340994 1.14427915 14.9195633 1.19011624 14.4642344 1.05814235 14.4921 1.56511899 14.3185866 2.00010987 14.3886814 2.47816915 14.2157426 2.9128524 14.1074404 3.35922565 14.0405056 3.81359731 14.0632002 4.28273528 13.9577708 4.73033905 13.8569377 5.17855809 13.7230681 5.62123975 13.6817007 6.07961063 13.6848607 6.54628755 13.5145073 6.98281659 13.4673944 7.44087983 13.4958345 7.91155596 13.3398449 8.35054605 13.3909796 8.82583665 13.2674519 9.27067174 13.2711864 9.73857918 13.1522551 10.1849524 13 10.6005625 13.147946 11.0346305 13.1131859 11.4625459 13.1258259 11.8950757 13.1858661 12.3260674 13.3197357 12.7382935 13.5412238 13.1059131 13.7362827 13.4867609 14.0198219 13.8039289 14.3208848 14.0971017 14.6047113 14.4314971 15.0206837 14.5324002 15.4087906 14.6520688 15.8009193 14.7366675 16.172077 15 16.5619075 14.9486255 16.9425452 14.9304753 17.3662741 14.8369553 17.8138466 14.9461645 18.2045389 14.7049814 18.591784 14.5219407 18.9942545 14.3702784 19.4202815 14.2189237 19.734559 13.8903733 19.9626544 13.485838 20.2358518 13.1332923 20.4472853 12.7346019 20.7382936 12.3752884 20.9615053 11.9692149 21.0468256 11.5056143 21.2249354 11.0764684 21.1806952 10.585181 21.3329503 10.1504977 21.5340419 9.72596629 21.5064637 9.24790701 21.5642057 8.79045903 21.6920425 8.34777736 21.8012065 7.90109649 21.797472 7.43072799 22.0189601 7.00711947 22.014651 6.5370586 22.1913243 6.10329825 22.1640333 5.62862291 22.212008 5.16871388 22.3579431 4.72818563 22.4538926 4.27781318 22.5889112 3.83543914 22.649526 3.37860643 22.7003735 2.91962029 22.7293881 2.45632732 22.8035047 2.00164803 23 1.57157925 22.9764436 1.1095168 22.5575984 1.11659232 22.136455 1.20180624 21.7147371 1 21.2930192 1.15320047 20.8715886 1.07567734 20.4559035 1.01630447"></polygon>
            <polygon id="Fill-4" points="27.232622 2.06363383 27.6996951 2.10283951 28.1478659 2.084443 28.5963415 2.11369647 29.0448171 2.00934905 29.4942073 2 30 2.04011043 29.8118902 2.51992762 29.7411585 2.96476129 29.7253049 3.42015033 29.5856707 3.85292071 29.5387195 4.30257969 29.4198171 4.73866747 29.3073171 5.17626317 29.3271341 5.6385886 29.1335366 6.06110518 29.0902439 6.51166891 29.0881098 6.96947061 29.0256098 7.41611377 28.7743902 7.82717023 28.7753049 8.28557509 28.7789634 8.7448847 28.5530488 9.16106806 28.4551829 9.60167958 28.4737805 10.0634018 28.4371951 10.5154735 28.3021341 10.9491486 28.2158537 11.3921728 28.1542683 11.8394191 27.9347561 12.2580151 27.947561 12.7185311 27.7685976 13.1443651 27.7216463 13.5946272 27.7762195 14.0641906 27.6707317 14.5045005 27.5027439 14.928525 27.0082317 14.9864288 26.5094512 14.95235 26.0103659 15 25.5106707 14.9701434 25.0560976 14.8914304 25 14.4761518 25.2643293 14.0656985 25.3057927 13.6169443 25.4176829 13.1796502 25.4618902 12.7311975 25.4932927 12.2806338 25.4682927 11.8204194 25.6210366 11.3903633 25.7887195 10.9627198 25.8079268 10.510045 25.8457317 10.0606876 26.0003049 9.63123463 26.0131098 9.17795666 26.0109756 8.72166288 26.1320122 8.28617826 26.2795732 7.85551895 26.342378 7.41008212 26.3204268 6.95016935 26.4704268 6.51920846 26.6457317 6.09307289 26.6484756 5.63738227 26.6634146 5.18319955 26.7594512 4.74288962 26.9314024 4.31615088 27.0185976 3.87463462 26.927439 3.4020554 27.1948171 2.99099893 27.0984756 2.51902287"></polygon>
            <polygon id="Fill-5" points="31.5620874 3.95195119 31.6240176 3.57061141 31.7073247 3.18494979 31.7947186 2.80030507 31.898774 2.41718571 32 2.04779458 31.5432254 2.04703191 31.0688463 2 30.5944671 2.0757595 30.120088 2.01754163 29.6453945 2.03813398 29.1710154 2.02237193 28.6960075 2.04499809 28.2213141 2.00457608 27.7469349 2.08160671 27.2722414 2.0747426 26.7972336 2.08109826 26.3222257 2.01906699 25.8462748 2.00813525 25.3674945 2.03330367 25.2373467 2.41362654 25.2562087 2.81250794 25.1100283 3.18800051 25.0625589 3.57798398 25 3.93415533 25.4316253 3.93085039 25.9034895 3.97737384 26.3750393 3.93440956 26.8472179 3.97432312 27.319082 3.93085039 27.7912606 3.93237575 28.2634392 3.93186729 28.7359321 3.99974577 29.2074819 4 29.6796605 3.9415279 30.1521534 3.91508834 30.6246463 3.94712088 31.0971393 3.92398627"></polygon>
            <polygon id="Fill-6" points="29.545924 14.9263384 29.6983215 14.5805594 29.7855839 14.1975699 29.8781443 13.8150867 29.9205289 13.4245032 30 13.0574611 29.5521571 13.0159473 29.0818753 13.0632831 28.6115934 13.0772054 28.141 13.0488546 27.6707181 13.0539172 27.2004363 13.0359448 26.7295312 13.0632831 26.2589377 13.0121504 25.7886559 13.0506265 25.3180624 13.0410075 24.8471573 13.0442982 24.3762522 13 23.9044121 13.0108847 23.4014069 13.0129098 23.3830195 13.4303253 23.277993 13.8097709 23.1913539 14.192001 23.1455412 14.5805594 23 14.9759524 23.493344 14.9989875 23.9611326 14.9600051 24.4286096 14.9711429 24.8967099 14.9301354 25.3644985 15 25.8322871 14.9853183 26.300699 14.9956967 26.7687993 14.9954436 27.2365879 14.988609 27.7046881 14.973168 28.1731 14.9843058 28.641512 14.93697 29.1096122 14.9382357"></polygon>
            <polygon id="Fill-7" points="36.3419519 0.070941337 35.8776893 0.155184175 35.4134268 0.109367894 34.9479456 0.154297408 34.4882525 0.0916325603 34.3560413 0.503979081 34.4197098 0.956821282 34.2948098 1.37567076 34.1260424 1.78683492 34.1050227 2.22460209 34.0367846 2.65379718 33.8869045 3.06850841 33.9024409 3.51277854 33.6977267 3.91773533 33.7656601 4.37116871 33.57831 4.77937699 33.4665093 5.20059118 33.5292639 5.65343338 33.4351319 6.07730787 33.2097026 6.47812642 33.2005636 6.91796271 33.2033053 7.35986812 33.0896767 7.7813779 32.9982864 8.20613915 32.8846579 8.62794452 32.7615856 9.04768076 32.7975325 9.49549795 32.5577853 9.89483856 32.6098778 10.3462028 32.4968585 10.767417 32.4136933 11.194543 32.225734 11.6030468 32.2138532 12.0431787 32.0539203 12.4572988 32 12.9462028 32.507216 12.8365393 32.9583793 12.9562528 33.4095427 13 33.8613153 12.9240337 34.3124786 12.8143702 34.7639465 12.9320146 35.2151099 12.8170305 35.6665778 12.7992951 36.1183504 12.9462028 36.570123 12.8424511 37.0225049 12.9462028 37.5193633 12.951819 37.4468604 12.4561164 37.6652831 12.0496817 37.6409124 11.605116 37.7106736 11.1753297 37.7332166 10.7360846 37.9172156 10.3133925 37.4633106 10.2779218 37.0200678 10.4186221 36.5768249 10.2566394 36.1335821 10.2616644 35.6894254 10.4180309 35.191653 10.3677808 35.2577587 9.89956799 35.5020753 9.51707594 35.5791478 9.10443383 35.470698 8.65839018 35.6909486 8.27116871 35.6979551 7.8452251 35.7957427 7.43908595 36.2840714 7.34952251 36.7757511 7.37435198 37.2680401 7.39888586 37.7801302 7.45859482 37.941891 7.01225557 37.8922356 6.55113688 38.0634401 6.1269668 38.0244469 5.66703047 38.189254 5.19763529 37.6634553 5.28542519 37.1793915 5.31025466 36.6941091 5.27153251 36.2325882 5.2133015 36.2271048 4.7950432 36.3791173 4.3794452 36.3846007 3.93753979 36.604242 3.53376535 36.6155135 3.09215553 36.6669967 2.62778536 37.1757359 2.57753524 37.6564487 2.68276489 38.1365523 2.66089131 38.6172651 2.68601637 39.0985873 2.68985903 39.6058033 2.69517963 39.7328358 2.24706685 39.840067 1.82260118 39.8629146 1.38335607 39.8784509 0.942337426 39.871749 0.497476126 40 0.130650296 39.5905716 0.0904502046 39.126309 0.0413824466 38.6626556 0.04315598 38.1983931 0.0576398363 37.7341305 0.141587085 37.2698679 0.00650295589 36.8065192 0"></polygon>
            <polygon id="Fill-8" points="40.4662568 3.13732923 40.8837121 3.19592705 41.3359812 3.07662791 41.7879395 3.13793024 42.2402086 3.12981669 42.6927886 3.10307205 43.1450577 3.12110215 43.5979485 3.16046786 44.0505284 3.08053443 44.5034192 3.14093525 44.9559992 3.17038441 45.40889 3.1307182 45.8620916 3.13913224 46.3152932 3.03275468 46.7678732 3.02554264 47.220764 3 47.6739656 3.15565983 48.1274781 3.1878135 48.5813014 3.02584314 49 3.12440767 48.9365891 3.50364069 48.9011536 3.92614595 48.7789943 4.32911861 48.5701112 4.71285916 48.4507495 5.11763482 48.4265041 5.52180948 47.962734 5.56718522 47.4787594 5.45419662 46.994474 5.52691801 46.5098777 5.46561568 46.0249706 5.49236032 45.5664848 5.57890479 45.4119983 5.98999098 45.4750984 6.46207901 45.3905505 6.91162941 45.2320232 7.34885925 45.2444567 7.81313423 45.0455205 8.24345253 45.0632382 8.70802802 44.8465842 9.1359423 44.8730055 9.6026213 44.7766457 10.0494672 44.7303309 10.5047271 44.6352145 10.952174 44.4549285 11.3863988 44.4281964 11.8446638 44.3349451 12.2927117 44.4226014 12.7693072 44.212475 13.1990245 44.0679353 13.6383579 44.1428473 14.1131504 44.0048353 14.5542868 43.8817435 14.9981276 43.8394695 15.4551906 43.7692201 15.8849079 43.2930165 15.9990985 42.7944325 16 42.2955377 15.8377291 41.7963321 15.8329211 41.2965048 15.816694 40.8610209 15.8560597 40.9639083 15.4756247 40.8840229 14.9969256 41.0639981 14.5630013 41.204186 14.1227665 41.1473026 13.6482744 41.2878013 13.2080396 41.4121365 12.7654007 41.5271465 12.3209588 41.5081854 11.8524768 41.5454859 11.3945124 41.652725 10.947967 41.712095 10.4933081 41.7929129 10.0425557 41.8787042 9.59210374 42.141673 9.1726035 42.040029 8.68969742 42.1475789 8.24285153 42.3872349 7.81974527 42.3897216 7.35456878 42.4080611 6.89239731 42.6312427 6.46568503 42.6822201 6.00832158 42.7530911 5.52000647 42.2703599 5.53923858 41.8243075 5.55696817 41.3779443 5.52992303 40.9315811 5.48094126 40.4842854 5.44668408 40 5.5804073 40.1206051 5.14257645 40.1805968 4.73329327 40.3366374 4.33813365 40.3512468 3.92193893 40.3108379 3.49402464"></polygon>
            <polygon id="Fill-9" points="16.8400078 33.9499529 16.3816359 33.8860892 15.9378619 33.7571335 15.4505863 33.827445 15.0403873 33.5713759 14.6173422 33.4829492 14.215026 33.3257461 13.8602988 33.069984 13.4991485 32.8320301 13.2051482 32.5004299 12.8924627 32.205674 12.5450343 31.9437712 12.1935186 31.6665166 12.0568829 31.2167069 11.7617148 30.8826503 11.6443482 30.4445081 11.4145784 30.0607115 11.2572138 29.6403775 11.1252494 29.1699963 11.1302126 28.6744381 11.0645224 28.1936177 11.1874361 27.7075777 11 27.2196954 11.1287529 26.7422524 11.2464114 26.2727924 11.2537103 26.1481353 11.2992555 25.6921849 11.3906379 25.2442175 11.450489 24.7842756 11.544791 24.3307815 11.7246363 23.906456 11.8198141 23.4462071 12.1479733 23.0955705 12.3234392 22.6743153 12.5923313 22.3086339 12.7634178 21.8784746 12.984137 21.4756417 13.2860201 21.1375936 13.6013333 20.8161256 13.9035083 20.4802268 14.2567758 20.2051214 14.5945696 19.9051459 15.0266654 19.7718918 15.3813926 19.4872682 15.7857525 19.2990543 16.2149287 19.1882139 16.6683373 19.2272076 17.0916744 19.0435993 17.5372001 19 17.9833098 19.040836 18.4206608 19.1311049 18.8623911 19.1633438 19.313756 19.1922053 19.7683324 19.2569902 20.1522554 19.5238056 20.5192448 19.7992181 20.9107586 20.0193638 21.3498613 20.1817865 21.6067831 20.596901 21.9241399 20.9211324 22.1924481 21.2932616 22.6207484 21.527224 22.8648241 21.9260654 23 22.2512179 22.6461486 22.5343063 22.3051433 22.8619151 21.9185928 23.0992549 21.5264951 23.3270766 21.0669554 23.4237933 20.6696025 23.6448602 20.739964 23.6721865 20.3785217 23.3933967 20.2582356 22.9159537 19.8562114 22.7074753 19.4941852 22.4833381 19.1820836 22.1664756 18.7657535 22.0602407 18.3847501 21.8189094 17.9473992 21.8539117 17.5193908 21.7814509 17.0884628 21.8225939 16.6887743 21.9693577 16.2899616 22.1112089 15.9431171 22.3626725 15.6678021 22.696422 15.4041652 23.0234167 15.0164469 23.2515454 14.7893047 23.6233676 14.7204029 24.0839235 14.3937035 24.3891186 14.3922437 24.8521308 14.2535643 25.2475949 13.9966425 25.6092848 13.9624836 26.0403652 13.905844 26.4579359 13.8897864 26.6498342 13.7216194 27.0790723 13.7397207 27.5298031 13.798112 27.9743931 13.9254051 28.401482 13.9289086 28.8476072 14.0328451 29.2808368 14.3069924 29.6259467 14.5350105 29.991014 14.8351418 30.2971302 15.1373169 30.6207475 15.5384653 30.7816351 15.903411 31.0294142 16.3369666 31.1528432 16.7854119 31.1448602 17.2093329 31.0027019 17.6586541 31.0297212 18.029439 30.7693536 18.4559875 30.6351783 18.7561189 30.2882261 19.1038392 30.015577 19.388205 29.7484546 19.7814705 29.9735129 20.2013041 30.1568142 20.5466887 30.4623163 20.9087149 30.7407991 21.3142426 30.9495845 21.6850275 31.2203914 21.3825605 31.5667294 21.0835969 31.8961805 20.7796701 32.22164 20.4596857 32.5326688 20.1671452 32.8946657 19.8007396 33.1581037 19.387913 33.332808 18.9520218 33.4375077 18.5718943 33.6812953 18.1654907 33.8793343 17.7252202 33.9524092 17.2834899 34"></polygon>
            <path d="M30.1740293,20.8336685 L29.7526854,20.7926094 L29.3636829,20.9750293 L28.9003255,20.8987766 L28.4953034,21.1087649 L28.1344106,21.3782889 L27.7581028,21.6220044 L27.4222971,21.9182169 L27.1405952,22.2637004 L26.9800977,22.6839702 L26.6932574,23.0232948 L26.5880725,23.4550025 L26.3211811,23.8157366 L26.1736805,24.227208 L25.9735875,24.6460114 L25.9243199,25.1049941 L25.8121832,25.5510726 L25.8499651,26.0115217 L25.740851,26.4734372 L25.9361079,26.910424 L25.9312718,27.3884699 L26.2903511,27.7351265 L26.3722623,28.2213843 L26.7564287,28.4489693 L27.0338991,28.7554466 L27.413834,28.9314144 L27.7333178,29.2349589 L28.1712857,29.334674 L28.6337363,29.2211748 L29.1079749,29.2918552 L29.5571262,29.1405229 L29.968798,28.9158706 L30.4635899,28.8985671 L30.8229714,28.5935562 L31.2007905,28.3325373 L31.487933,27.9776688 L31.8101372,27.6585805 L32.026552,27.2620664 L32.2668449,26.8819759 L32.4285515,26.463759 L32.643455,26.0657784 L32.8559405,25.6587062 L32.8498954,25.1909251 L33.1013718,24.7844394 L33.1814694,24.3515586 L33.1591025,23.9107592 L33.2452453,23.4664404 L32.9883283,23.0655271 L32.9810742,22.613583 L32.8024413,22.2015251 L32.4031621,21.9463717 L32.1386887,21.5959025 L31.7469658,21.4219876 L31.4422925,21.1219625 L31.0665892,20.9234121 L30.6769821,20.7210491 L30.1740293,20.8336685 Z M28.1712857,32 L27.7423855,31.9099631 L27.2923274,31.9480895 L26.9356661,31.637213 L26.5291328,31.5181414 L26.1241107,31.3773672 L25.7756103,31.1333585 L25.4392002,30.8784984 L25.1055103,30.6209988 L24.71681,30.4101307 L24.4822599,30.0508631 L24.1358754,29.7795794 L23.9672169,29.3537372 L23.7408277,28.9701274 L23.6114625,28.5436987 L23.3974657,28.151877 L23.3092072,27.7184096 L23.1447803,27.300486 L23.202511,26.8482487 L23.0383864,26.4183007 L23.1674494,25.9763281 L23,25.5255572 L23.2390839,25.1055807 L23.1650314,24.6471845 L23.3031621,24.2219289 L23.3560567,23.775264 L23.6314113,23.3948802 L23.7876773,22.9907407 L23.8517554,22.5496481 L24.1352709,22.1977124 L24.2664497,21.7777359 L24.3915834,21.3454416 L24.7793769,21.0688788 L24.9619391,20.6638596 L25.2527087,20.3327468 L25.5069054,19.9676135 L25.8551035,19.6887045 L26.1658219,19.36727 L26.5394094,19.1197419 L26.9015113,18.8543238 L27.3234597,18.6880342 L27.7602186,18.5716021 L28.1350151,18.2991453 L28.6128807,18.3182085 L29.0514532,18.2325708 L29.4879098,18.1158455 L29.9421995,18.18242 L30.3928621,18 L30.8338526,18.1639434 L31.2627528,18.2668845 L31.3050686,18.1137925 L31.7046501,18.300905 L32.1471518,18.3645467 L32.5016973,18.6337774 L32.8740758,18.8487515 L33.2080679,19.120915 L33.659335,19.2297218 L33.9247152,19.5848835 L34.3339688,19.7802078 L34.5833295,20.138009 L34.827854,20.4896514 L35.172425,20.7767722 L35.4027435,21.1451316 L35.5747268,21.5422323 L35.7037898,21.9528239 L35.7681702,22.3774929 L35.9410602,22.7778197 L36,23.2033685 L35.9461986,23.6336099 L35.8467566,24.0535864 L35.9440828,24.4829479 L35.8189491,24.8952991 L35.7053011,25.3035445 L35.7164845,25.7686861 L35.629435,26.2162309 L35.4266217,26.6306352 L35.3057196,27.0693816 L35.1364566,27.4917044 L34.9312253,27.8999497 L34.7713322,28.3304843 L34.4065101,28.6483995 L34.158963,29.0255572 L34.0329226,29.497151 L33.6708207,29.7971761 L33.3513369,30.1282889 L33.0502906,30.4857969 L32.6153453,30.6846405 L32.2338991,30.9438998 L31.8373402,31.1961203 L31.4181121,31.414907 L30.984678,31.609938 L30.5204139,31.7205044 L30.0419437,31.7524719 L29.5879563,31.8955924 L29.1206696,31.9950142 L28.6418972,31.9354785 L28.1712857,32 Z" id="Fill-10"></path>
            <path d="M41.0685097,22.7362466 L41.4581865,22.7571362 L41.8608125,22.8627447 L42.2878309,22.8343116 L42.6898545,22.9541366 L42.9575692,23.2657397 L43.168067,23.5657375 L43.1241003,23.9597384 L43.193664,24.4065436 L43.0331557,24.8173723 L42.8858976,25.2461892 L42.5645798,25.5807128 L42.1098564,25.7130136 L41.7466799,25.994733 L41.3160478,26.14067 L40.8568073,26.173455 L40.4017828,26.1957953 L40.1566537,26.3051755 L40.3027073,25.855469 L40.5273587,25.4324548 L40.6321559,24.9859397 L40.6827476,24.5275292 L40.7095492,24.0641864 L40.8131418,23.6165108 L40.9007739,23.1636128 L41.0685097,22.7362466 Z M38.8310296,32.9428438 L38.9261903,32.4922668 L39.085494,32.0718638 L39.0713404,31.6166447 L39.1565634,31.1808646 L39.3797091,30.7735175 L39.4224712,30.3290334 L39.5643087,29.9042783 L39.5661156,29.4066998 L39.8263017,29.8331957 L40.1418978,30.1770036 L40.3936519,30.5582387 L40.5240461,31.0111367 L40.868853,31.3384069 L41.118198,31.7222532 L41.288644,32.1525208 L41.4684253,32.5784364 L41.8373235,32.8363649 L42.2417563,32.8685696 L42.6967808,32.9933269 L43.1521065,33 L43.6077333,32.9532885 L44.0633601,32.8830763 L44.5198904,32.8880086 L44.9737104,32.8775638 L44.9604601,32.9225344 L44.7490589,32.5607383 L44.6183636,32.1417859 L44.3352908,31.8130649 L44.1211793,31.4434352 L43.8378053,31.1144241 L43.664649,30.7212935 L43.3674225,30.4009865 L43.2029994,30.001473 L43.0262294,29.6089227 L42.7407474,29.2810722 L42.4901978,28.9317517 L42.264643,28.5682148 L42.6766043,28.4138639 L43.1274129,28.3372687 L43.5210046,28.1263419 L43.8995393,27.8930747 L44.2886138,27.6696721 L44.5177824,27.2710291 L44.9297437,27.0537193 L45.1056103,26.6426005 L45.3932002,26.3089473 L45.4784232,25.8760685 L45.7732406,25.5252974 L45.9159816,25.1124378 L45.9861475,24.6836209 L45.9891589,24.248421 L45.9816304,23.8399134 L46,23.4314058 L45.925317,23.0295713 L45.8623784,22.6219341 L45.5747884,22.2966947 L45.4142801,21.9299663 L45.2486524,21.54612 L44.8761406,21.3291004 L44.6352275,20.9142098 L44.2241696,20.6928382 L43.8146174,20.4717566 L43.3367061,20.4264959 L42.8898124,20.3316223 L42.4730328,20.0765952 L41.9933147,20.1549311 L41.5425061,20.0110251 L41.0772428,20.0713728 L40.6161954,20.0687616 L40.1482218,20 L39.6913904,20.0919722 L39.2074563,20.106769 L38.7087662,20.2347178 L38.7105731,20.7090856 L38.5199506,21.1103399 L38.4353299,21.533064 L38.354624,21.9563684 L38.2453097,22.3744504 L38.1736381,22.8000759 L38.1507513,23.2352757 L37.9658506,23.6379807 L37.8607523,24.0566429 L37.7339718,24.4709532 L37.6610956,24.8962885 L37.7243352,25.3491865 L37.5505767,25.7536322 L37.3972958,26.1621398 L37.4283133,26.6083648 L37.2066733,27.0035262 L37.235884,27.4491709 L37.0732677,27.856518 L36.9470895,28.2708282 L36.8004336,28.6816569 L36.8151896,29.1249805 L36.6432379,29.5302966 L36.6610052,29.9744906 L36.5763845,30.3980851 L36.3535399,30.7929565 L36.3396874,31.2307675 L36.3035505,31.6639364 L36.115036,32.0663512 L36.0268016,32.4899458 L36,32.9077376 L36.4532177,32.9886848 L36.9251062,32.9614123 L37.3969946,32.8836566 L37.8688831,32.8984534 L38.3413738,32.9251456 L38.8310296,32.9428438 Z" id="Fill-11"></path>
            <polygon id="Fill-12" points="47.0079394 31.9106839 47 31.4313743 47.2132305 31.0120166 47.3283523 30.5755298 47.3924349 30.1298667 47.3445147 29.6640157 47.4222077 29.2207997 47.6002779 28.7953244 47.5775938 28.3343675 47.6187087 27.8841162 47.7738112 27.4546646 47.8580259 27.0120603 47.930615 26.5679266 47.9915785 26.1216517 47.9751326 25.6616124 48.0295744 25.2147258 48.0463039 24.760804 48.1988545 24.3307407 48.2779652 23.8878305 48.4118014 23.4544024 48.4903451 23.0108805 48.3998923 22.5370767 48.623047 22.1195543 48.5413843 21.6472799 48.6709672 21.2126284 48.6618936 20.7532008 48.7821193 20.3176316 48.9199251 19.8845095 49.0358976 19.447411 49.0327785 18.9885951 49.1569739 18.5521084 49.1963876 18.1507975 49.5525279 18 49.9565883 18.0437404 50.3606488 18.1226568 50.7649928 18.1055276 51.1699039 18.1278567 51.5643236 18.1061394 51.6445686 18.5340616 51.8288769 18.9494429 51.9051521 19.3899061 52.0007089 19.8263928 52.0636572 20.2705265 52.0449429 20.7345423 52.2357728 21.1480883 52.3704596 21.5757046 52.4158278 22.0244265 52.5335016 22.4560192 52.6086426 22.8970942 52.7093033 23.3326633 52.7674313 23.7786323 52.8326481 24.222766 52.9188476 24.6629233 53.003913 25.1905615 53.1791476 24.6855582 53.1598662 24.2200131 53.239544 23.7798558 53.3311311 23.3415338 53.5483313 22.9344112 53.5018289 22.4624426 53.5945501 22.0247324 53.7697848 21.6065982 53.7618454 21.1441119 54.0102362 20.7440245 54.1026739 20.3063142 54.1931267 19.8676863 54.2246009 19.4143762 54.3592877 18.986454 54.4440695 18.5453791 54.5254487 18.1581385 54.9105112 18.0281407 55.3434939 18.1238803 55.7764766 18.1082805 56.2097428 18.2009613 56.6435761 18.0446581 57 18.1633384 56.9906428 18.535591 56.8295857 18.964125 56.7876202 19.417435 56.8029319 19.8835919 56.7345961 20.331702 56.5409306 20.752589 56.5684351 21.2211929 56.44906 21.6579856 56.3861117 22.1073192 56.2392321 22.5386061 56.0781751 22.9668342 56.0498199 23.4235088 56.0756231 23.8918069 55.9777979 24.3334936 55.8649446 24.770898 55.8258145 25.2251256 55.7744917 25.6769063 55.5340403 26.0876994 55.4719426 26.5373389 55.4123969 26.9872842 55.4461395 27.4577234 55.3174072 27.8929867 55.10843 28.3111208 55.183571 28.7907363 55.083761 29.232423 54.9981286 29.6768626 54.9221368 30.1237492 54.8606062 30.5740004 54.6037088 30.9820406 54.6314969 31.4524798 54.5115547 31.880402 54.1103298 31.8797903 53.698897 31.8134149 53.2874642 31.9379069 52.8760314 31.8950841 52.463748 31.8277911 51.9876655 31.9782827 51.9607282 31.4524798 51.7988204 31.0300634 51.7429608 30.5810356 51.7608246 30.1145729 51.6836986 29.670745 51.5285961 29.2458816 51.497122 28.7910422 51.3862534 28.3551671 51.1231179 27.9566091 51.2198089 27.4705702 51.0734965 27.0435657 51.0326651 26.5905615 50.8285082 26.1773214 50.769246 25.7279878 50.6654663 25.2226786 50.605637 25.729823 50.4970369 26.1617217 50.5021408 26.6122788 50.4088525 27.0469303 50.4233136 27.4987109 50.3799302 27.9413153 50.2132021 28.3646493 50.2214251 28.8161241 50.1114073 29.2483286 49.9682139 29.6747214 49.9449627 30.1209963 49.9092353 30.5657418 49.9234128 31.0181341 49.7308816 31.4381036 49.7133014 31.8357439 49.3010179 31.8724492 48.8464854 32 48.3916693 31.9605418 47.9368531 31.9421892 47.4823206 31.9605418"></polygon>
            <polygon id="Fill-13" points="59.3417253 20.0732117 59.1942973 20.5350779 59.2694624 21.0089954 59.1498948 21.4455539 59.1304506 21.9007919 58.9566132 22.3274081 58.9516796 22.7859602 58.8863818 23.2327623 58.6739462 23.6515451 58.5845607 24.0941293 58.5839803 24.553284 58.4200102 24.9817078 58.4142059 25.44026 58.3846042 25.8936903 58.2940579 26.3356719 58.254589 26.7869932 58.029384 27.2033658 57.9568309 27.6489627 57.8871799 28.0951623 57.9577015 28.5681759 57.7734165 28.9926831 57.6625553 29.4316519 57.6494958 29.8883963 57.645723 30.3478523 57.5516941 30.7898339 57.4756584 31.2351296 57.3401291 31.6689765 57.2600305 32.1136696 57.0751651 32.5384781 57.1932816 33.0214341 57 33.4450374 57.0116085 33.8273651 57.3502866 33.9243781 57.7687731 33.8029612 58.1875499 33.9545063 58.6063266 33.9183524 59.0251034 33.9310063 59.4444606 33.9846346 59.8632373 33.9385383 60.2820141 33.8695446 60.701081 33.9768012 61.1198578 34 61.539215 33.8077817 61.9588624 33.9768012 62.369223 33.8818972 62.4499021 33.431781 62.452514 32.9578635 62.5082348 32.493587 62.6130015 32.0368426 62.8126678 31.5960661 62.8199231 31.1134114 62.3671915 31.2269949 61.9214249 31.0510459 61.4762388 31.2215718 61.0304723 31.1983731 60.5841254 31.0697254 60.1160125 31.1402255 60.1708627 30.6681157 60.2332584 30.2219162 60.2770805 29.7717999 60.4271204 29.342171 60.5356599 28.9038048 60.5347892 28.4443488 60.7086266 28.0382199 61.0827106 27.9201171 61.4782703 28.0098993 61.8738301 27.9056555 62.2699703 27.9303607 62.6080679 27.9514505 62.8396575 27.5582767 62.8698397 27.0768271 62.9760575 26.6089352 62.8965392 26.1069984 63.0610897 25.6415167 62.5683088 25.659895 62.0816223 25.5520358 61.5940652 25.7560041 61.1639701 25.592709 61.1221795 25.17483 61.2994994 24.7325471 61.2997896 24.2559181 61.4219691 23.8030903 61.4329972 23.3282689 61.6335341 22.9257554 62.0096496 22.9823965 62.4232025 22.8320565 62.8373358 22.8938194 63.251179 22.811268 63.6656026 22.9495567 64.0803163 22.7971077 64.5641007 22.9619093 64.6293985 22.4310493 64.7118189 21.9697857 64.8110716 21.5115348 64.7782776 21.0285788 64.8958137 20.5727382 65 20.0864681 64.5411739 20.0557373 64.1107887 20.0930963 63.6804034 20.1042438 63.2497279 20.1632952 62.8193427 20.0804425 62.388377 20.1949298 61.9574113 20.0289231 61.527026 20.1569682 61.0963506 20.0876732 60.6653849 20.0129552 60.2344192 20.2024619 59.8028731 20"></polygon>
            <path d="M70.6786257,18.1135993 L70.2355112,18.0154234 L69.7868151,18.0293638 L69.3517628,18.1788521 L68.903997,18.1548272 L68.4404168,18.1924959 L67.9185401,18.2002076 L67.8645849,18.6976123 L67.8205526,19.1469672 L67.7960557,19.5995848 L67.6127942,20.0216521 L67.4059661,20.4392704 L67.4540296,20.9064215 L67.3079785,21.3353107 L67.2797606,21.7876316 L67.1947967,22.2286816 L66.9696735,22.6427406 L66.9302924,23.0929853 L66.953859,23.5550942 L66.7250147,23.9682634 L66.665478,24.4143556 L66.6295079,24.8646003 L66.4726038,25.2914133 L66.3581816,25.7271244 L66.2998853,26.1732167 L66.1122826,26.5946908 L66.2223635,27.0734095 L65.9854569,27.4856889 L65.8580111,27.9190271 L65.8068467,28.366899 L65.7057583,28.8055762 L65.6713386,29.2570073 L65.5352104,29.6882693 L65.494589,30.1388106 L65.3938107,30.5774878 L65.3314831,31.0241732 L65.2586127,31.4687824 L65,31.9575856 L65.5386214,31.9240694 L65.992899,31.8650452 L66.4474867,31.8392407 L66.9020745,31.9107222 L67.3616236,31.9727124 L67.7765202,31.8514015 L67.985829,31.4856889 L68.0280009,31.0493845 L67.992961,30.5973602 L68.1557568,30.1859706 L68.3489411,29.7816995 L68.4574715,29.359039 L68.377159,28.8972268 L68.4859996,28.4748628 L68.6106546,28.0545751 L68.7774815,27.6295417 L69.0469472,28.0355925 L69.0522187,28.5359632 L69.4429285,28.8782441 L69.5207603,29.3492511 L69.8159633,29.7306837 L69.8203045,30.231351 L70.067444,30.6329527 L70.2321002,31.0683672 L70.4460603,31.4845024 L70.6318025,31.9534332 L71.1142981,31.9973306 L71.5524512,31.8531811 L71.9915346,32 L72.4299978,31.8018686 L72.8690812,31.8941124 L73.3087848,31.9335607 L73.7463177,31.8597064 L73.8098856,31.8611894 L73.5010388,31.5180187 L73.3943688,31.0897227 L73.2377748,30.6824855 L73.1035071,30.2660537 L72.886136,29.8852143 L72.5887624,29.538781 L72.5565134,29.0787483 L72.3304599,28.7020614 L72.038978,28.352662 L71.9757202,27.9050868 L71.7195882,27.540264 L71.5363267,27.143408 L71.4277962,26.7358742 L71.857577,26.6729942 L72.2895284,26.458253 L72.6644237,26.1551238 L73.0597848,25.8970785 L73.4601073,25.6369568 L73.7193401,25.2409907 L74.035629,24.9001928 L74.3404447,24.5383361 L74.5674284,24.1278363 L74.6747186,23.6737357 L74.8936401,23.2507786 L74.8306924,22.7699837 L75,22.3271541 L74.9441843,21.8508082 L74.8477472,21.3898858 L74.7903811,20.9310396 L74.7181308,20.4656681 L74.4278892,20.0824559 L74.2982728,19.6093727 L73.9370213,19.283405 L73.5401098,19.0772653 L73.2315731,18.7649414 L72.8055133,18.6320629 L72.452014,18.3351624 L72.0061087,18.258342 L71.572917,18.1491918 L71.1406555,18 L70.6786257,18.1135993 Z M69.4457192,24.5273617 L69.5154889,24.0714815 L69.6429347,23.6262791 L69.7700704,23.1810767 L69.7170455,22.7014682 L69.9626345,22.2791043 L69.8550343,21.7885214 L70.0448076,21.3554798 L70.1809358,20.9087943 L70.1837266,20.4265164 L70.6879283,20.5519798 L71.1468573,20.5688863 L71.6346243,20.5757081 L72.025024,20.8509565 L72.2544885,21.2365416 L72.3428633,21.6366602 L72.4917052,22.088388 L72.3797637,22.5291413 L72.1853391,22.9402343 L71.9065707,23.2994216 L71.6786567,23.6933116 L71.213526,23.8650452 L70.9902633,24.2998665 L70.5350554,24.4407534 L70.1796955,24.7429927 L69.679835,24.7364674 L69.3235449,24.9722675 L69.4457192,24.5273617 Z" id="Fill-14"></path>
        </g>
    </g>
</svg>